Coordinates
version=1
nRows=5
nColumns=42
inDegrees=yes

Units are S.I. units (second, meters, Newtons, ...)
If the header above contains a line with 'inDegrees', this indicates whether rotational values are in degrees (yes) or radians (no).

endheader
time	pelvis_tilt	pelvis_list	pelvis_rotation	pelvis_tx	pelvis_ty	pelvis_tz	hip_flexion_r	hip_adduction_r	hip_rotation_r	knee_angle_r	knee_adduction_r	knee_angle_r_beta	ankle_angle_r	subtalar_angle_r	mtp_angle_r	hip_flexion_l	hip_adduction_l	hip_rotation_l	knee_angle_l	knee_adduction_l	knee_angle_l_beta	ankle_angle_l	subtalar_angle_l	mtp_angle_l	lumbar_extension	lumbar_bending	lumbar_rotation	arm_flex_r	arm_add_r	arm_rot_r	elbow_flex_r	pro_sup_r	wrist_flex_r	wrist_dev_r	arm_flex_l	arm_add_l	arm_rot_l	elbow_flex_l	pro_sup_l	wrist_flex_l	wrist_dev_l
      4.87000000	     21.05487278	     -1.28245052	     -5.65946550	     -0.04148515	      0.94988243	      0.05085262	    -18.81659722	      1.75578434	    -26.79858383	     21.18487028	    -14.08173212	      0.36974574	     21.74929580	     36.81455115	     -7.50003473	      3.00536609	     -2.03747438	     -6.49060272	     22.80311099	     -2.91722497	      0.39798937	      8.23629142	    -14.37668499	     -7.50003473	    -38.87486799	     -4.97761090	      2.89152095	     22.99620490	    -16.69897760	     -4.73072415	     59.97270359	     90.00000001	      0.00000000	      0.00000000	      3.88396909	    -14.35395847	      8.39935651	     56.47189494	     90.00000001	      0.00000000	      0.00000000
      4.88000000	     21.39833493	     -1.27242220	     -5.80951729	     -0.03488563	      0.94941996	      0.05021629	    -19.73246232	      1.56925476	    -26.72255186	     20.97839998	    -14.06902017	      0.36614215	     22.45621743	     36.93184761	     -7.50003443	      2.23462360	     -1.78369898	     -6.63027465	     22.25513257	     -3.10044963	      0.38842534	      8.10347215	    -13.78096744	     -7.50003443	    -38.95404578	     -5.05432366	      3.03366957	     22.60963301	    -16.37883495	     -4.58313604	     59.64660097	     90.00000001	      0.00000000	      0.00000000	      3.41535790	    -14.32717603	      8.23846040	     56.11090614	     90.00000001	      0.00000000	      0.00000000
      4.89000000	     21.46380297	     -1.30177459	     -5.86880409	     -0.02848662	      0.94844145	      0.04942937	    -20.20658624	      1.48585262	    -26.63671993	     21.07044624	    -14.14839412	      0.36774866	     22.62656945	     36.83754387	     -7.50003427	      1.97968918	     -1.63163239	     -6.51847805	     22.39418351	     -3.18255074	      0.39085224	      8.05868044	    -13.55582407	     -7.50003427	    -38.77174535	     -5.02242914	      3.20565414	     22.20916069	    -16.14774843	     -4.49937442	     59.46877065	     90.00000001	      0.00000000	      0.00000000	      3.04683664	    -14.33082718	      8.16857155	     55.94988832	     90.00000001	      0.00000000	      0.00000000
      4.90000000	     21.55036253	     -1.31840282	     -5.94864158	     -0.02199309	      0.94745360	      0.04859551	    -20.68598458	      1.39111464	    -26.53966458	     21.16967124	    -14.27841818	      0.36948046	     22.79893378	     36.75125216	     -7.50003416	      1.65740619	     -1.41969988	     -6.33234752	     22.63899335	     -3.27309709	      0.39512497	      7.98601771	    -13.39643402	     -7.50003416	    -38.60448122	     -5.02168485	      3.41068484	     21.79630654	    -15.88854736	     -4.41455440	     59.29505429	     90.00000001	      0.00000000	      0.00000000	      2.68051973	    -14.35581852	      8.10982701	     55.79355336	     90.00000001	      0.00000000	      0.00000000
      4.91000000	     21.86149929	     -1.20371649	     -6.01408745	     -0.01523844	      0.94668242	      0.04753568	    -21.51825653	      1.11194070	    -26.25593365	     21.20368065	    -14.22514570	      0.37007404	     23.92632658	     36.45399370	     -7.50003356	      1.01776227	     -0.98804640	     -6.14543080	     22.84590765	     -3.41465185	      0.39873631	      7.75182384	    -13.16625056	     -7.50003356	    -38.61722748	     -5.11587813	      3.41477404	     21.51770919	    -15.63579970	     -4.25109666	     58.68004895	     90.00000001	      0.00000000	      0.00000000	      2.39942743	    -14.31296722	      7.64823966	     55.31581534	     90.00000001	      0.00000000	      0.00000000
